<mxfile host="65bd71144e">
    <diagram id="4_nfnfdhDg5d41BVBWpk" name="Page-1">
        <mxGraphModel dx="503" dy="1417" grid="1" gridSize="10" guides="1" tooltips="1" connect="1" arrows="1" fold="1" page="1" pageScale="1" pageWidth="1169" pageHeight="827" math="0" shadow="0">
            <root>
                <mxCell id="0"/>
                <mxCell id="1" parent="0"/>
                <mxCell id="103" style="edgeStyle=none;shape=connector;rounded=1;fillStyle=auto;html=1;exitX=0;exitY=0.25;exitDx=0;exitDy=0;entryX=0.5;entryY=1;entryDx=0;entryDy=0;labelBackgroundColor=default;strokeColor=default;strokeWidth=1;fontFamily=Helvetica;fontSize=11;fontColor=default;endArrow=none;endFill=0;startSize=6;endSize=6;fillColor=#000000;" parent="1" source="2" target="95" edge="1">
                    <mxGeometry relative="1" as="geometry">
                        <Array as="points">
                            <mxPoint x="260" y="90"/>
                        </Array>
                    </mxGeometry>
                </mxCell>
                <mxCell id="108" value="(0, N)" style="edgeLabel;html=1;align=center;verticalAlign=middle;resizable=0;points=[];fontSize=11;fontFamily=Helvetica;fontColor=default;" parent="103" vertex="1" connectable="0">
                    <mxGeometry x="-0.4749" relative="1" as="geometry">
                        <mxPoint x="-15" y="6" as="offset"/>
                    </mxGeometry>
                </mxCell>
                <mxCell id="2" value="UTENTI" style="rounded=0;whiteSpace=wrap;html=1;" parent="1" vertex="1">
                    <mxGeometry x="320" y="120" width="80" height="40" as="geometry"/>
                </mxCell>
                <mxCell id="3" value="SPETTATORI" style="rounded=0;whiteSpace=wrap;html=1;" parent="1" vertex="1">
                    <mxGeometry x="240" y="200" width="80" height="40" as="geometry"/>
                </mxCell>
                <mxCell id="43" value="" style="edgeStyle=none;shape=connector;rounded=1;fillStyle=auto;html=1;labelBackgroundColor=default;strokeColor=default;strokeWidth=1;fontFamily=Helvetica;fontSize=11;fontColor=default;endArrow=none;startSize=6;endSize=6;fillColor=#000000;" parent="1" source="4" target="39" edge="1">
                    <mxGeometry relative="1" as="geometry"/>
                </mxCell>
                <mxCell id="44" value="(1, 1)" style="edgeLabel;html=1;align=center;verticalAlign=middle;resizable=0;points=[];fontSize=11;fontFamily=Helvetica;fontColor=default;" parent="43" vertex="1" connectable="0">
                    <mxGeometry x="-0.2675" y="1" relative="1" as="geometry">
                        <mxPoint x="19" as="offset"/>
                    </mxGeometry>
                </mxCell>
                <mxCell id="4" value="STREAMER" style="rounded=0;whiteSpace=wrap;html=1;" parent="1" vertex="1">
                    <mxGeometry x="400" y="200" width="80" height="40" as="geometry"/>
                </mxCell>
                <mxCell id="9" value="" style="edgeStyle=elbowEdgeStyle;elbow=vertical;endArrow=none;html=1;curved=0;rounded=0;endSize=8;startSize=8;strokeWidth=1;endFill=0;entryX=0.5;entryY=1;entryDx=0;entryDy=0;exitX=0.5;exitY=0;exitDx=0;exitDy=0;" parent="1" source="3" target="2" edge="1">
                    <mxGeometry width="50" height="50" relative="1" as="geometry">
                        <mxPoint x="370" y="260" as="sourcePoint"/>
                        <mxPoint x="420" y="210" as="targetPoint"/>
                        <Array as="points">
                            <mxPoint x="320" y="190"/>
                        </Array>
                    </mxGeometry>
                </mxCell>
                <mxCell id="10" value="" style="edgeStyle=elbowEdgeStyle;elbow=vertical;endArrow=none;html=1;curved=0;rounded=0;endSize=8;startSize=8;strokeWidth=1;endFill=0;entryX=0.5;entryY=1;entryDx=0;entryDy=0;exitX=0.5;exitY=0;exitDx=0;exitDy=0;" parent="1" source="4" target="2" edge="1">
                    <mxGeometry width="50" height="50" relative="1" as="geometry">
                        <mxPoint x="290" y="210" as="sourcePoint"/>
                        <mxPoint x="370" y="170" as="targetPoint"/>
                        <Array as="points">
                            <mxPoint x="410" y="190"/>
                            <mxPoint x="330" y="200"/>
                        </Array>
                    </mxGeometry>
                </mxCell>
                <mxCell id="11" value="(s)" style="shape=flexArrow;endArrow=classic;html=1;strokeWidth=1;startSize=0;endSize=4.833333333333333;width=10.952380952380953;endWidth=8.594104308390023;fillColor=#000000;fillStyle=auto;" parent="1" edge="1">
                    <mxGeometry x="-0.3333" y="-20" width="50" height="50" relative="1" as="geometry">
                        <mxPoint x="359.76" y="190" as="sourcePoint"/>
                        <mxPoint x="359.76" y="160" as="targetPoint"/>
                        <mxPoint as="offset"/>
                    </mxGeometry>
                </mxCell>
                <mxCell id="12" value="" style="endArrow=oval;html=1;fillStyle=auto;strokeWidth=1;startSize=6;endSize=6;fillColor=#000000;startArrow=none;startFill=0;endFill=1;" parent="1" source="2" edge="1">
                    <mxGeometry width="50" height="50" relative="1" as="geometry">
                        <mxPoint x="470" y="310" as="sourcePoint"/>
                        <mxPoint x="350" y="100" as="targetPoint"/>
                    </mxGeometry>
                </mxCell>
                <mxCell id="13" value="nome utente" style="edgeLabel;html=1;align=center;verticalAlign=middle;resizable=0;points=[];" parent="12" vertex="1" connectable="0">
                    <mxGeometry x="0.4791" y="1" relative="1" as="geometry">
                        <mxPoint x="-30" y="-21" as="offset"/>
                    </mxGeometry>
                </mxCell>
                <mxCell id="14" value="" style="endArrow=oval;html=1;fillStyle=auto;strokeWidth=1;startSize=6;endSize=6;fillColor=#000000;startArrow=none;startFill=0;endFill=0;" parent="1" source="2" edge="1">
                    <mxGeometry width="50" height="50" relative="1" as="geometry">
                        <mxPoint x="330" y="136.66666666666669" as="sourcePoint"/>
                        <mxPoint x="360" y="70" as="targetPoint"/>
                    </mxGeometry>
                </mxCell>
                <mxCell id="15" value="password" style="edgeLabel;html=1;align=center;verticalAlign=middle;resizable=0;points=[];" parent="14" vertex="1" connectable="0">
                    <mxGeometry x="0.4791" y="1" relative="1" as="geometry">
                        <mxPoint x="-29" y="-23" as="offset"/>
                    </mxGeometry>
                </mxCell>
                <mxCell id="17" value="" style="endArrow=oval;html=1;fillStyle=auto;strokeWidth=1;startSize=6;endSize=6;fillColor=#000000;startArrow=none;startFill=0;endFill=0;" parent="1" source="2" edge="1">
                    <mxGeometry width="50" height="50" relative="1" as="geometry">
                        <mxPoint x="345" y="130" as="sourcePoint"/>
                        <mxPoint x="380" y="70" as="targetPoint"/>
                    </mxGeometry>
                </mxCell>
                <mxCell id="18" value="indirizzo&lt;br&gt;mail" style="edgeLabel;html=1;align=center;verticalAlign=middle;resizable=0;points=[];" parent="17" vertex="1" connectable="0">
                    <mxGeometry x="0.4791" y="1" relative="1" as="geometry">
                        <mxPoint x="15" y="-33" as="offset"/>
                    </mxGeometry>
                </mxCell>
                <mxCell id="19" value="" style="endArrow=oval;html=1;fillStyle=auto;strokeWidth=1;startSize=6;endSize=6;fillColor=#000000;startArrow=none;startFill=0;endFill=0;" parent="1" source="2" edge="1">
                    <mxGeometry width="50" height="50" relative="1" as="geometry">
                        <mxPoint x="355" y="140" as="sourcePoint"/>
                        <mxPoint x="440" y="130" as="targetPoint"/>
                    </mxGeometry>
                </mxCell>
                <mxCell id="20" value="numero &lt;br&gt;di telefono" style="edgeLabel;html=1;align=center;verticalAlign=middle;resizable=0;points=[];" parent="19" vertex="1" connectable="0">
                    <mxGeometry x="0.4791" y="1" relative="1" as="geometry">
                        <mxPoint x="24" y="-21" as="offset"/>
                    </mxGeometry>
                </mxCell>
                <mxCell id="21" value="" style="endArrow=oval;html=1;fillStyle=auto;strokeWidth=1;startSize=6;endSize=6;fillColor=#000000;startArrow=none;startFill=0;endFill=0;" parent="1" source="2" edge="1">
                    <mxGeometry width="50" height="50" relative="1" as="geometry">
                        <mxPoint x="365" y="150" as="sourcePoint"/>
                        <mxPoint x="410" y="110" as="targetPoint"/>
                    </mxGeometry>
                </mxCell>
                <mxCell id="22" value="data di &lt;br&gt;nascita" style="edgeLabel;html=1;align=center;verticalAlign=middle;resizable=0;points=[];" parent="21" vertex="1" connectable="0">
                    <mxGeometry x="0.4791" y="1" relative="1" as="geometry">
                        <mxPoint x="6" y="-22" as="offset"/>
                    </mxGeometry>
                </mxCell>
                <mxCell id="23" value="abbonamento" style="rhombus;whiteSpace=wrap;html=1;" parent="1" vertex="1">
                    <mxGeometry x="480" y="115" width="130" height="50" as="geometry"/>
                </mxCell>
                <mxCell id="25" value="" style="endArrow=none;html=1;fillStyle=auto;strokeWidth=1;startSize=6;endSize=6;fillColor=#000000;exitX=0;exitY=0.5;exitDx=0;exitDy=0;entryX=1;entryY=0.5;entryDx=0;entryDy=0;" parent="1" source="23" target="2" edge="1">
                    <mxGeometry width="50" height="50" relative="1" as="geometry">
                        <mxPoint x="500" y="140" as="sourcePoint"/>
                        <mxPoint x="550" y="90" as="targetPoint"/>
                    </mxGeometry>
                </mxCell>
                <mxCell id="26" value="(0, N)" style="edgeLabel;html=1;align=center;verticalAlign=middle;resizable=0;points=[];" parent="25" vertex="1" connectable="0">
                    <mxGeometry x="0.5447" relative="1" as="geometry">
                        <mxPoint x="7" y="10" as="offset"/>
                    </mxGeometry>
                </mxCell>
                <mxCell id="29" value="" style="endArrow=none;html=1;fillStyle=auto;strokeWidth=1;startSize=6;endSize=6;fillColor=#000000;exitX=0;exitY=0.5;exitDx=0;exitDy=0;entryX=1;entryY=0.5;entryDx=0;entryDy=0;" parent="1" source="31" target="23" edge="1">
                    <mxGeometry width="50" height="50" relative="1" as="geometry">
                        <mxPoint x="490" y="150" as="sourcePoint"/>
                        <mxPoint x="410" y="150" as="targetPoint"/>
                    </mxGeometry>
                </mxCell>
                <mxCell id="30" value="(1, N)" style="edgeLabel;html=1;align=center;verticalAlign=middle;resizable=0;points=[];" parent="29" vertex="1" connectable="0">
                    <mxGeometry x="0.5447" relative="1" as="geometry">
                        <mxPoint x="22" y="10" as="offset"/>
                    </mxGeometry>
                </mxCell>
                <mxCell id="31" value="PREMIUM" style="rounded=0;whiteSpace=wrap;html=1;" parent="1" vertex="1">
                    <mxGeometry x="690" y="120" width="80" height="40" as="geometry"/>
                </mxCell>
                <mxCell id="33" value="" style="endArrow=oval;html=1;fillStyle=auto;strokeWidth=1;startSize=6;endSize=6;fillColor=#000000;startArrow=none;startFill=0;endFill=0;" parent="1" source="31" edge="1">
                    <mxGeometry width="50" height="50" relative="1" as="geometry">
                        <mxPoint x="690" y="120" as="sourcePoint"/>
                        <mxPoint x="700" y="90" as="targetPoint"/>
                    </mxGeometry>
                </mxCell>
                <mxCell id="34" value="data di&lt;br&gt;pagamento" style="edgeLabel;html=1;align=center;verticalAlign=middle;resizable=0;points=[];" parent="33" vertex="1" connectable="0">
                    <mxGeometry x="0.4791" y="1" relative="1" as="geometry">
                        <mxPoint x="-30" y="-29" as="offset"/>
                    </mxGeometry>
                </mxCell>
                <mxCell id="35" value="" style="endArrow=oval;html=1;fillStyle=auto;strokeWidth=1;startSize=6;endSize=6;fillColor=#000000;startArrow=none;startFill=0;endFill=1;jumpStyle=none;" parent="1" edge="1">
                    <mxGeometry width="50" height="50" relative="1" as="geometry">
                        <mxPoint x="720" y="110" as="sourcePoint"/>
                        <mxPoint x="680" y="150" as="targetPoint"/>
                        <Array as="points">
                            <mxPoint x="680" y="110"/>
                        </Array>
                    </mxGeometry>
                </mxCell>
                <mxCell id="37" value="" style="endArrow=oval;html=1;fillStyle=auto;strokeWidth=1;startSize=6;endSize=6;fillColor=#000000;startArrow=none;startFill=0;endFill=0;" parent="1" source="31" edge="1">
                    <mxGeometry width="50" height="50" relative="1" as="geometry">
                        <mxPoint x="728" y="130" as="sourcePoint"/>
                        <mxPoint x="760" y="100" as="targetPoint"/>
                    </mxGeometry>
                </mxCell>
                <mxCell id="38" value="data di&lt;br&gt;scadenza" style="edgeLabel;html=1;align=center;verticalAlign=middle;resizable=0;points=[];" parent="37" vertex="1" connectable="0">
                    <mxGeometry x="0.4791" y="1" relative="1" as="geometry">
                        <mxPoint x="25" y="-29" as="offset"/>
                    </mxGeometry>
                </mxCell>
                <mxCell id="49" value="" style="edgeStyle=none;shape=connector;rounded=1;fillStyle=auto;html=1;labelBackgroundColor=default;strokeColor=default;strokeWidth=1;fontFamily=Helvetica;fontSize=11;fontColor=default;endArrow=none;startSize=6;endSize=6;fillColor=#000000;" parent="1" source="39" target="47" edge="1">
                    <mxGeometry relative="1" as="geometry"/>
                </mxCell>
                <mxCell id="50" value="(1, 1)" style="edgeLabel;html=1;align=center;verticalAlign=middle;resizable=0;points=[];fontSize=11;fontFamily=Helvetica;fontColor=default;" parent="49" vertex="1" connectable="0">
                    <mxGeometry x="-0.327" y="1" relative="1" as="geometry">
                        <mxPoint x="18" y="-3" as="offset"/>
                    </mxGeometry>
                </mxCell>
                <mxCell id="39" value="gestisce" style="rhombus;whiteSpace=wrap;html=1;" parent="1" vertex="1">
                    <mxGeometry x="400" y="280" width="80" height="40" as="geometry"/>
                </mxCell>
                <mxCell id="45" value="" style="edgeStyle=none;shape=connector;rounded=1;fillStyle=auto;html=1;labelBackgroundColor=default;strokeColor=default;strokeWidth=1;fontFamily=Helvetica;fontSize=11;fontColor=default;endArrow=none;startSize=6;endSize=6;fillColor=#000000;entryX=0.5;entryY=0;entryDx=0;entryDy=0;exitX=0.5;exitY=1;exitDx=0;exitDy=0;" parent="1" source="47" target="48" edge="1">
                    <mxGeometry relative="1" as="geometry">
                        <mxPoint x="441" y="400" as="sourcePoint"/>
                        <mxPoint x="441" y="440" as="targetPoint"/>
                    </mxGeometry>
                </mxCell>
                <mxCell id="51" value="(0, N)" style="edgeLabel;html=1;align=center;verticalAlign=middle;resizable=0;points=[];fontSize=11;fontFamily=Helvetica;fontColor=default;" parent="45" vertex="1" connectable="0">
                    <mxGeometry x="-0.3032" relative="1" as="geometry">
                        <mxPoint x="-20" as="offset"/>
                    </mxGeometry>
                </mxCell>
                <mxCell id="47" value="CANALE" style="rounded=0;whiteSpace=wrap;html=1;" parent="1" vertex="1">
                    <mxGeometry x="400" y="360" width="80" height="40" as="geometry"/>
                </mxCell>
                <mxCell id="48" value="contenitore di" style="rhombus;whiteSpace=wrap;html=1;" parent="1" vertex="1">
                    <mxGeometry x="400" y="440" width="80" height="40" as="geometry"/>
                </mxCell>
                <mxCell id="52" value="" style="endArrow=oval;html=1;fillStyle=auto;strokeWidth=1;startSize=6;endSize=6;fillColor=#000000;startArrow=none;startFill=0;endFill=0;" parent="1" source="47" edge="1">
                    <mxGeometry width="50" height="50" relative="1" as="geometry">
                        <mxPoint x="490" y="386.4271428571429" as="sourcePoint"/>
                        <mxPoint x="500" y="360" as="targetPoint"/>
                    </mxGeometry>
                </mxCell>
                <mxCell id="53" value="immagine profilo" style="edgeLabel;html=1;align=center;verticalAlign=middle;resizable=0;points=[];" parent="52" vertex="1" connectable="0">
                    <mxGeometry x="0.4791" y="1" relative="1" as="geometry">
                        <mxPoint x="61" y="-3" as="offset"/>
                    </mxGeometry>
                </mxCell>
                <mxCell id="54" value="" style="endArrow=oval;html=1;fillStyle=auto;strokeWidth=1;startSize=6;endSize=6;fillColor=#000000;startArrow=none;startFill=0;endFill=1;" parent="1" edge="1">
                    <mxGeometry width="50" height="50" relative="1" as="geometry">
                        <mxPoint x="450" y="350" as="sourcePoint"/>
                        <mxPoint x="430" y="350" as="targetPoint"/>
                    </mxGeometry>
                </mxCell>
                <mxCell id="56" value="" style="endArrow=oval;html=1;fillStyle=auto;strokeWidth=1;startSize=6;endSize=6;fillColor=#000000;startArrow=none;startFill=0;endFill=0;" parent="1" source="47" edge="1">
                    <mxGeometry width="50" height="50" relative="1" as="geometry">
                        <mxPoint x="490" y="370" as="sourcePoint"/>
                        <mxPoint x="500" y="400" as="targetPoint"/>
                    </mxGeometry>
                </mxCell>
                <mxCell id="57" value="trailer" style="edgeLabel;html=1;align=center;verticalAlign=middle;resizable=0;points=[];" parent="56" vertex="1" connectable="0">
                    <mxGeometry x="0.4791" y="1" relative="1" as="geometry">
                        <mxPoint x="31" as="offset"/>
                    </mxGeometry>
                </mxCell>
                <mxCell id="58" value="" style="endArrow=oval;html=1;fillStyle=auto;strokeWidth=1;startSize=6;endSize=6;fillColor=#000000;startArrow=none;startFill=0;endFill=0;" parent="1" source="47" edge="1">
                    <mxGeometry width="50" height="50" relative="1" as="geometry">
                        <mxPoint x="500" y="380" as="sourcePoint"/>
                        <mxPoint x="490" y="420" as="targetPoint"/>
                    </mxGeometry>
                </mxCell>
                <mxCell id="59" value="descrizione" style="edgeLabel;html=1;align=center;verticalAlign=middle;resizable=0;points=[];" parent="58" vertex="1" connectable="0">
                    <mxGeometry x="0.4791" y="1" relative="1" as="geometry">
                        <mxPoint x="45" y="3" as="offset"/>
                    </mxGeometry>
                </mxCell>
                <mxCell id="61" value="" style="edgeStyle=none;shape=connector;rounded=1;fillStyle=auto;html=1;labelBackgroundColor=default;strokeColor=default;strokeWidth=1;fontFamily=Helvetica;fontSize=11;fontColor=default;endArrow=none;endFill=0;startSize=6;endSize=6;fillColor=#000000;" parent="1" source="60" target="47" edge="1">
                    <mxGeometry relative="1" as="geometry"/>
                </mxCell>
                <mxCell id="62" value="(0, N)" style="edgeLabel;html=1;align=center;verticalAlign=middle;resizable=0;points=[];fontSize=11;fontFamily=Helvetica;fontColor=default;" parent="61" vertex="1" connectable="0">
                    <mxGeometry x="-0.2998" y="1" relative="1" as="geometry">
                        <mxPoint x="6" y="-9" as="offset"/>
                    </mxGeometry>
                </mxCell>
                <mxCell id="64" value="" style="edgeStyle=none;shape=connector;rounded=1;fillStyle=auto;html=1;labelBackgroundColor=default;strokeColor=default;strokeWidth=1;fontFamily=Helvetica;fontSize=11;fontColor=default;endArrow=none;endFill=0;startSize=6;endSize=6;fillColor=#000000;" parent="1" source="60" target="63" edge="1">
                    <mxGeometry relative="1" as="geometry"/>
                </mxCell>
                <mxCell id="65" value="(1, N)" style="edgeLabel;html=1;align=center;verticalAlign=middle;resizable=0;points=[];fontSize=11;fontFamily=Helvetica;fontColor=default;" parent="64" vertex="1" connectable="0">
                    <mxGeometry x="0.4262" y="1" relative="1" as="geometry">
                        <mxPoint x="21" y="9" as="offset"/>
                    </mxGeometry>
                </mxCell>
                <mxCell id="60" value="associato" style="rhombus;whiteSpace=wrap;html=1;" parent="1" vertex="1">
                    <mxGeometry x="280" y="360" width="80" height="40" as="geometry"/>
                </mxCell>
                <mxCell id="63" value="LINK" style="rounded=0;whiteSpace=wrap;html=1;" parent="1" vertex="1">
                    <mxGeometry x="280" y="280" width="80" height="40" as="geometry"/>
                </mxCell>
                <mxCell id="66" value="" style="endArrow=oval;html=1;fillStyle=auto;strokeWidth=1;startSize=6;endSize=6;fillColor=#000000;startArrow=none;startFill=0;endFill=0;" parent="1" source="63" edge="1">
                    <mxGeometry width="50" height="50" relative="1" as="geometry">
                        <mxPoint x="340" y="300" as="sourcePoint"/>
                        <mxPoint x="360" y="260" as="targetPoint"/>
                    </mxGeometry>
                </mxCell>
                <mxCell id="67" value="link" style="edgeLabel;html=1;align=center;verticalAlign=middle;resizable=0;points=[];" parent="66" vertex="1" connectable="0">
                    <mxGeometry x="0.4791" y="1" relative="1" as="geometry">
                        <mxPoint x="20" y="-4" as="offset"/>
                    </mxGeometry>
                </mxCell>
                <mxCell id="70" value="" style="edgeStyle=none;shape=connector;rounded=1;fillStyle=auto;html=1;labelBackgroundColor=default;strokeColor=default;strokeWidth=1;fontFamily=Helvetica;fontSize=11;fontColor=default;endArrow=none;endFill=0;startSize=6;endSize=6;fillColor=#000000;" parent="1" source="72" target="73" edge="1">
                    <mxGeometry relative="1" as="geometry"/>
                </mxCell>
                <mxCell id="71" value="(0, N)" style="edgeLabel;html=1;align=center;verticalAlign=middle;resizable=0;points=[];fontSize=11;fontFamily=Helvetica;fontColor=default;" parent="70" vertex="1" connectable="0">
                    <mxGeometry x="0.4262" y="1" relative="1" as="geometry">
                        <mxPoint x="21" as="offset"/>
                    </mxGeometry>
                </mxCell>
                <mxCell id="76" value="" style="edgeStyle=none;shape=connector;rounded=1;fillStyle=auto;html=1;labelBackgroundColor=default;strokeColor=default;strokeWidth=1;fontFamily=Helvetica;fontSize=11;fontColor=default;endArrow=none;endFill=0;startSize=6;endSize=6;fillColor=#000000;" parent="1" source="72" target="63" edge="1">
                    <mxGeometry relative="1" as="geometry"/>
                </mxCell>
                <mxCell id="77" value="(1, N)" style="edgeLabel;html=1;align=center;verticalAlign=middle;resizable=0;points=[];fontSize=11;fontFamily=Helvetica;fontColor=default;" parent="76" vertex="1" connectable="0">
                    <mxGeometry x="-0.2522" y="2" relative="1" as="geometry">
                        <mxPoint x="-2" y="-8" as="offset"/>
                    </mxGeometry>
                </mxCell>
                <mxCell id="72" value="di tipo" style="rhombus;whiteSpace=wrap;html=1;" parent="1" vertex="1">
                    <mxGeometry x="139.1" y="280" width="80" height="40" as="geometry"/>
                </mxCell>
                <mxCell id="73" value="SOCIAL" style="rounded=0;whiteSpace=wrap;html=1;" parent="1" vertex="1">
                    <mxGeometry x="139.1" y="360" width="80" height="40" as="geometry"/>
                </mxCell>
                <mxCell id="74" value="" style="endArrow=oval;html=1;fillStyle=auto;strokeWidth=1;startSize=6;endSize=6;fillColor=#000000;startArrow=none;startFill=0;endFill=1;" parent="1" source="73" edge="1">
                    <mxGeometry width="50" height="50" relative="1" as="geometry">
                        <mxPoint x="179.1" y="370" as="sourcePoint"/>
                        <mxPoint x="220" y="410" as="targetPoint"/>
                    </mxGeometry>
                </mxCell>
                <mxCell id="79" value="nome" style="edgeLabel;html=1;align=center;verticalAlign=middle;resizable=0;points=[];fontSize=11;fontFamily=Helvetica;fontColor=default;" parent="74" vertex="1" connectable="0">
                    <mxGeometry x="0.6214" y="-1" relative="1" as="geometry">
                        <mxPoint x="22" y="8" as="offset"/>
                    </mxGeometry>
                </mxCell>
                <mxCell id="78" value="" style="endArrow=oval;html=1;fillStyle=auto;strokeWidth=1;startSize=6;endSize=6;fillColor=#000000;startArrow=none;startFill=0;endFill=1;jumpStyle=none;" parent="1" edge="1">
                    <mxGeometry width="50" height="50" relative="1" as="geometry">
                        <mxPoint x="330" y="330" as="sourcePoint"/>
                        <mxPoint x="270" y="290" as="targetPoint"/>
                        <Array as="points">
                            <mxPoint x="270" y="330"/>
                        </Array>
                    </mxGeometry>
                </mxCell>
                <mxCell id="80" value="" style="edgeStyle=none;shape=connector;rounded=1;fillStyle=auto;html=1;labelBackgroundColor=default;strokeColor=default;strokeWidth=1;fontFamily=Helvetica;fontSize=11;fontColor=default;endArrow=none;endFill=0;startSize=6;endSize=6;fillColor=#000000;" parent="1" source="84" target="47" edge="1">
                    <mxGeometry relative="1" as="geometry">
                        <mxPoint x="760" y="490" as="targetPoint"/>
                    </mxGeometry>
                </mxCell>
                <mxCell id="81" value="(0, 1)" style="edgeLabel;html=1;align=center;verticalAlign=middle;resizable=0;points=[];fontSize=11;fontFamily=Helvetica;fontColor=default;" parent="80" vertex="1" connectable="0">
                    <mxGeometry x="-0.2998" y="1" relative="1" as="geometry">
                        <mxPoint x="26" y="9" as="offset"/>
                    </mxGeometry>
                </mxCell>
                <mxCell id="82" value="" style="edgeStyle=none;shape=connector;rounded=1;fillStyle=auto;html=1;labelBackgroundColor=default;strokeColor=default;strokeWidth=1;fontFamily=Helvetica;fontSize=11;fontColor=default;endArrow=none;endFill=0;startSize=6;endSize=6;fillColor=#000000;" parent="1" source="84" target="85" edge="1">
                    <mxGeometry relative="1" as="geometry"/>
                </mxCell>
                <mxCell id="83" value="(1, 1)" style="edgeLabel;html=1;align=center;verticalAlign=middle;resizable=0;points=[];fontSize=11;fontFamily=Helvetica;fontColor=default;" parent="82" vertex="1" connectable="0">
                    <mxGeometry x="0.4262" y="1" relative="1" as="geometry">
                        <mxPoint x="21" y="9" as="offset"/>
                    </mxGeometry>
                </mxCell>
                <mxCell id="84" value="va in diretta" style="rhombus;whiteSpace=wrap;html=1;" parent="1" vertex="1">
                    <mxGeometry x="640" y="360" width="80" height="40" as="geometry"/>
                </mxCell>
                <mxCell id="85" value="LIVE" style="rounded=0;whiteSpace=wrap;html=1;" parent="1" vertex="1">
                    <mxGeometry x="640" y="280" width="80" height="40" as="geometry"/>
                </mxCell>
                <mxCell id="86" value="" style="endArrow=oval;html=1;fillStyle=auto;strokeWidth=1;startSize=6;endSize=6;fillColor=#000000;startArrow=none;startFill=0;endFill=1;jumpStyle=none;" parent="1" edge="1">
                    <mxGeometry width="50" height="50" relative="1" as="geometry">
                        <mxPoint x="690" y="330" as="sourcePoint"/>
                        <mxPoint x="670" y="330" as="targetPoint"/>
                        <Array as="points"/>
                    </mxGeometry>
                </mxCell>
                <mxCell id="88" value="" style="edgeStyle=none;shape=connector;rounded=1;fillStyle=auto;html=1;labelBackgroundColor=default;strokeColor=default;strokeWidth=1;fontFamily=Helvetica;fontSize=11;fontColor=default;endArrow=none;endFill=0;startSize=6;endSize=6;fillColor=#000000;" parent="1" source="87" target="48" edge="1">
                    <mxGeometry relative="1" as="geometry"/>
                </mxCell>
                <mxCell id="89" value="(1, N)" style="edgeLabel;html=1;align=center;verticalAlign=middle;resizable=0;points=[];fontSize=11;fontFamily=Helvetica;fontColor=default;" parent="88" vertex="1" connectable="0">
                    <mxGeometry x="0.5343" y="1" relative="1" as="geometry">
                        <mxPoint x="21" y="21" as="offset"/>
                    </mxGeometry>
                </mxCell>
                <mxCell id="87" value="VIDEO" style="rounded=0;whiteSpace=wrap;html=1;" parent="1" vertex="1">
                    <mxGeometry x="400" y="520" width="80" height="40" as="geometry"/>
                </mxCell>
                <mxCell id="91" style="edgeStyle=none;shape=connector;rounded=1;fillStyle=auto;html=1;entryX=0;entryY=0.5;entryDx=0;entryDy=0;labelBackgroundColor=default;strokeColor=default;strokeWidth=1;fontFamily=Helvetica;fontSize=11;fontColor=default;endArrow=none;endFill=0;startSize=6;endSize=6;fillColor=#000000;" parent="1" source="90" target="2" edge="1">
                    <mxGeometry relative="1" as="geometry"/>
                </mxCell>
                <mxCell id="92" value="(0, N)" style="edgeLabel;html=1;align=center;verticalAlign=middle;resizable=0;points=[];fontSize=11;fontFamily=Helvetica;fontColor=default;" parent="91" vertex="1" connectable="0">
                    <mxGeometry x="0.4528" relative="1" as="geometry">
                        <mxPoint y="10" as="offset"/>
                    </mxGeometry>
                </mxCell>
                <mxCell id="93" style="edgeStyle=none;shape=connector;rounded=1;fillStyle=auto;html=1;exitX=0.5;exitY=1;exitDx=0;exitDy=0;entryX=0;entryY=0.5;entryDx=0;entryDy=0;labelBackgroundColor=default;strokeColor=default;strokeWidth=1;fontFamily=Helvetica;fontSize=11;fontColor=default;endArrow=none;endFill=0;startSize=6;endSize=6;fillColor=#000000;" parent="1" source="90" target="4" edge="1">
                    <mxGeometry relative="1" as="geometry">
                        <Array as="points">
                            <mxPoint x="200" y="260"/>
                            <mxPoint x="330" y="260"/>
                            <mxPoint x="360" y="220"/>
                        </Array>
                    </mxGeometry>
                </mxCell>
                <mxCell id="94" value="(0, N)" style="edgeLabel;html=1;align=center;verticalAlign=middle;resizable=0;points=[];fontSize=11;fontFamily=Helvetica;fontColor=default;" parent="93" vertex="1" connectable="0">
                    <mxGeometry x="-0.8995" y="-1" relative="1" as="geometry">
                        <mxPoint x="-20" y="14" as="offset"/>
                    </mxGeometry>
                </mxCell>
                <mxCell id="90" value="segue" style="rhombus;whiteSpace=wrap;html=1;fontFamily=Helvetica;fontSize=11;fontColor=default;" parent="1" vertex="1">
                    <mxGeometry x="160" y="120" width="80" height="40" as="geometry"/>
                </mxCell>
                <mxCell id="104" style="edgeStyle=none;shape=connector;rounded=1;fillStyle=auto;html=1;labelBackgroundColor=default;strokeColor=default;strokeWidth=1;fontFamily=Helvetica;fontSize=11;fontColor=default;endArrow=none;endFill=0;startSize=6;endSize=6;fillColor=#000000;startArrow=oval;startFill=0;" parent="1" target="95" edge="1">
                    <mxGeometry relative="1" as="geometry">
                        <mxPoint x="239.22222222222217" y="60" as="targetPoint"/>
                        <mxPoint x="259" y="-10" as="sourcePoint"/>
                    </mxGeometry>
                </mxCell>
                <mxCell id="105" value="timestamp" style="edgeLabel;html=1;align=center;verticalAlign=middle;resizable=0;points=[];fontSize=11;fontFamily=Helvetica;fontColor=default;" parent="104" vertex="1" connectable="0">
                    <mxGeometry x="-0.2572" y="1" relative="1" as="geometry">
                        <mxPoint x="20" y="-24" as="offset"/>
                    </mxGeometry>
                </mxCell>
                <mxCell id="106" style="edgeStyle=none;shape=connector;rounded=1;fillStyle=auto;html=1;labelBackgroundColor=default;strokeColor=default;strokeWidth=1;fontFamily=Helvetica;fontSize=11;fontColor=default;startArrow=none;startFill=0;endArrow=none;endFill=0;startSize=6;endSize=6;fillColor=#000000;exitX=1;exitY=0.5;exitDx=0;exitDy=0;jumpStyle=arc;" parent="1" source="95" target="4" edge="1">
                    <mxGeometry relative="1" as="geometry">
                        <Array as="points">
                            <mxPoint x="840" y="30"/>
                            <mxPoint x="840" y="220"/>
                        </Array>
                    </mxGeometry>
                </mxCell>
                <mxCell id="109" value="(0, N)" style="edgeLabel;html=1;align=center;verticalAlign=middle;resizable=0;points=[];fontSize=11;fontFamily=Helvetica;fontColor=default;" parent="106" vertex="1" connectable="0">
                    <mxGeometry x="-0.9208" relative="1" as="geometry">
                        <mxPoint x="-2" y="-10" as="offset"/>
                    </mxGeometry>
                </mxCell>
                <mxCell id="95" value="messaggia" style="rhombus;whiteSpace=wrap;html=1;fontFamily=Helvetica;fontSize=11;fontColor=default;" parent="1" vertex="1">
                    <mxGeometry x="219.1" y="10" width="80" height="40" as="geometry"/>
                </mxCell>
                <mxCell id="96" value="" style="endArrow=oval;html=1;fillStyle=auto;strokeWidth=1;startSize=6;endSize=6;fillColor=#000000;startArrow=none;startFill=0;endFill=0;" parent="1" source="90" edge="1">
                    <mxGeometry width="50" height="50" relative="1" as="geometry">
                        <mxPoint x="345" y="130" as="sourcePoint"/>
                        <mxPoint x="200" y="100" as="targetPoint"/>
                    </mxGeometry>
                </mxCell>
                <mxCell id="97" value="data&lt;br&gt;iscrizione" style="edgeLabel;html=1;align=center;verticalAlign=middle;resizable=0;points=[];" parent="96" vertex="1" connectable="0">
                    <mxGeometry x="0.4791" y="1" relative="1" as="geometry">
                        <mxPoint x="1" y="-28" as="offset"/>
                    </mxGeometry>
                </mxCell>
                <mxCell id="98" value="" style="endArrow=oval;html=1;fillStyle=auto;strokeWidth=1;startSize=6;endSize=6;fillColor=#000000;startArrow=none;startFill=0;endFill=1;jumpStyle=none;" parent="1" edge="1">
                    <mxGeometry width="50" height="50" relative="1" as="geometry">
                        <mxPoint x="190" y="170" as="sourcePoint"/>
                        <mxPoint x="190" y="110" as="targetPoint"/>
                        <Array as="points">
                            <mxPoint x="250" y="170"/>
                            <mxPoint x="250" y="110"/>
                        </Array>
                    </mxGeometry>
                </mxCell>
                <mxCell id="101" value="" style="endArrow=oval;html=1;fillStyle=auto;strokeWidth=1;startSize=6;endSize=6;fillColor=#000000;startArrow=none;startFill=0;endFill=0;exitX=0.5;exitY=0.75;exitDx=0;exitDy=0;exitPerimeter=0;" parent="1" source="90" edge="1">
                    <mxGeometry width="50" height="50" relative="1" as="geometry">
                        <mxPoint x="210" y="130" as="sourcePoint"/>
                        <mxPoint x="160" y="170" as="targetPoint"/>
                    </mxGeometry>
                </mxCell>
                <mxCell id="102" value="data&lt;br&gt;annullamento" style="edgeLabel;html=1;align=center;verticalAlign=middle;resizable=0;points=[];" parent="101" vertex="1" connectable="0">
                    <mxGeometry x="0.4791" y="1" relative="1" as="geometry">
                        <mxPoint x="-51" y="-16" as="offset"/>
                    </mxGeometry>
                </mxCell>
                <mxCell id="110" value="" style="endArrow=oval;html=1;fillStyle=auto;strokeWidth=1;startSize=6;endSize=6;fillColor=#000000;startArrow=none;startFill=0;endFill=1;jumpStyle=none;" parent="1" edge="1">
                    <mxGeometry width="50" height="50" relative="1" as="geometry">
                        <mxPoint x="250" y="60" as="sourcePoint"/>
                        <mxPoint x="250" as="targetPoint"/>
                        <Array as="points">
                            <mxPoint x="310" y="50"/>
                            <mxPoint x="310"/>
                        </Array>
                    </mxGeometry>
                </mxCell>
                <mxCell id="111" value="CONTENUTI" style="rounded=0;whiteSpace=wrap;html=1;" vertex="1" parent="1">
                    <mxGeometry x="680" y="639.74" width="80" height="40" as="geometry"/>
                </mxCell>
                <mxCell id="114" value="LIVE" style="rounded=0;whiteSpace=wrap;html=1;" vertex="1" parent="1">
                    <mxGeometry x="600" y="719.88" width="80" height="40" as="geometry"/>
                </mxCell>
                <mxCell id="115" value="VIDEO" style="rounded=0;whiteSpace=wrap;html=1;" vertex="1" parent="1">
                    <mxGeometry x="760" y="719.88" width="80" height="40" as="geometry"/>
                </mxCell>
                <mxCell id="116" value="" style="edgeStyle=elbowEdgeStyle;elbow=vertical;endArrow=none;html=1;curved=0;rounded=0;endSize=8;startSize=8;strokeWidth=1;endFill=0;entryX=0.5;entryY=1;entryDx=0;entryDy=0;exitX=0.5;exitY=0;exitDx=0;exitDy=0;" edge="1" parent="1" source="114" target="111">
                    <mxGeometry width="50" height="50" relative="1" as="geometry">
                        <mxPoint x="730" y="779.88" as="sourcePoint"/>
                        <mxPoint x="780" y="729.88" as="targetPoint"/>
                        <Array as="points">
                            <mxPoint x="680" y="709.88"/>
                        </Array>
                    </mxGeometry>
                </mxCell>
                <mxCell id="117" value="" style="edgeStyle=elbowEdgeStyle;elbow=vertical;endArrow=none;html=1;curved=0;rounded=0;endSize=8;startSize=8;strokeWidth=1;endFill=0;entryX=0.5;entryY=1;entryDx=0;entryDy=0;exitX=0.5;exitY=0;exitDx=0;exitDy=0;" edge="1" parent="1" source="115" target="111">
                    <mxGeometry width="50" height="50" relative="1" as="geometry">
                        <mxPoint x="650" y="729.88" as="sourcePoint"/>
                        <mxPoint x="730" y="689.88" as="targetPoint"/>
                        <Array as="points">
                            <mxPoint x="770" y="709.88"/>
                            <mxPoint x="690" y="719.88"/>
                        </Array>
                    </mxGeometry>
                </mxCell>
                <mxCell id="118" value="(e)" style="shape=flexArrow;endArrow=classic;html=1;strokeWidth=1;startSize=0;endSize=4.833333333333333;width=10.952380952380953;endWidth=8.594104308390023;fillColor=#000000;fillStyle=auto;" edge="1" parent="1">
                    <mxGeometry x="-0.3333" y="-20" width="50" height="50" relative="1" as="geometry">
                        <mxPoint x="719.76" y="709.88" as="sourcePoint"/>
                        <mxPoint x="719.76" y="679.88" as="targetPoint"/>
                        <mxPoint as="offset"/>
                    </mxGeometry>
                </mxCell>
                <mxCell id="125" value="(0, 1)" style="edgeLabel;html=1;align=center;verticalAlign=middle;resizable=0;points=[];fontSize=11;fontFamily=Helvetica;fontColor=default;" vertex="1" connectable="0" parent="1">
                    <mxGeometry x="655.0000000000002" y="699.7363636363638" as="geometry"/>
                </mxCell>
                <mxCell id="126" value="(0, N)" style="edgeLabel;html=1;align=center;verticalAlign=middle;resizable=0;points=[];fontSize=11;fontFamily=Helvetica;fontColor=default;" vertex="1" connectable="0" parent="1">
                    <mxGeometry x="800.0000000000002" y="699.7363636363638" as="geometry"/>
                </mxCell>
                <mxCell id="127" value="&lt;br/&gt;&#9;&#9;&lt;br/&gt;&#9;&lt;br/&gt;&#9;&lt;br/&gt;&#9;&#9;&lt;div title=&quot;Page 2&quot; class=&quot;page&quot;&gt;&lt;br/&gt;&#9;&#9;&#9;&lt;div class=&quot;layoutArea&quot;&gt;&lt;br/&gt;&#9;&#9;&#9;&#9;&lt;div class=&quot;column&quot;&gt;&lt;br/&gt;&#9;&#9;&#9;&#9;&#9;&lt;p&gt;&lt;span style=&quot;font-size: 12.000000pt; font-family: 'TimesNewRomanPSMT'&quot;&gt;Ognuno ha un titolo,&amp;nbsp;&lt;/span&gt;&lt;span style=&quot;background-color: initial; font-family: TimesNewRomanPSMT; font-size: 12pt;&quot;&gt;una durata, appartiene a una categoria e&amp;nbsp;&lt;/span&gt;&lt;/p&gt;&lt;p&gt;&lt;span style=&quot;background-color: initial; font-family: TimesNewRomanPSMT; font-size: 12pt;&quot;&gt;può essere associato a diversi hashtags/emojis&lt;br/&gt;etc...&amp;nbsp;&lt;/span&gt;&lt;/p&gt;&lt;hr&gt;&lt;p&gt;&lt;span style=&quot;background-color: initial; font-family: TimesNewRomanPSMT; font-size: 12pt;&quot;&gt;Per ogni live, viene memorizzato il numero medio di spettatori, i commenti e le reazioni&lt;br/&gt;(emojis, hashtags etc..)&lt;/span&gt;&lt;/p&gt;&lt;p&gt;&lt;span style=&quot;background-color: initial; font-family: TimesNewRomanPSMT; font-size: 12pt;&quot;&gt;&amp;nbsp;mentre per i video e le clip il numero di visualizzazioni.&amp;nbsp;&lt;/span&gt;&lt;/p&gt;&lt;/div&gt;&lt;/div&gt;&lt;/div&gt;" style="text;html=1;align=center;verticalAlign=middle;resizable=0;points=[];autosize=1;strokeColor=none;fillColor=none;" vertex="1" parent="1">
                    <mxGeometry x="1060" y="399.74" width="590" height="300" as="geometry"/>
                </mxCell>
                <mxCell id="128" value="" style="endArrow=oval;html=1;fillStyle=auto;strokeWidth=1;startSize=6;endSize=6;fillColor=#000000;startArrow=none;startFill=0;endFill=0;" edge="1" parent="1" source="111">
                    <mxGeometry width="50" height="50" relative="1" as="geometry">
                        <mxPoint x="745" y="616.4066666666665" as="sourcePoint"/>
                        <mxPoint x="655" y="639.74" as="targetPoint"/>
                    </mxGeometry>
                </mxCell>
                <mxCell id="129" value="titolo" style="edgeLabel;html=1;align=center;verticalAlign=middle;resizable=0;points=[];" vertex="1" connectable="0" parent="128">
                    <mxGeometry x="0.4791" y="1" relative="1" as="geometry">
                        <mxPoint x="-27" y="-3" as="offset"/>
                    </mxGeometry>
                </mxCell>
                <mxCell id="130" value="" style="endArrow=oval;html=1;fillStyle=auto;strokeWidth=1;startSize=6;endSize=6;fillColor=#000000;startArrow=none;startFill=0;endFill=0;" edge="1" parent="1" source="111">
                    <mxGeometry width="50" height="50" relative="1" as="geometry">
                        <mxPoint x="595" y="476.4066666666665" as="sourcePoint"/>
                        <mxPoint x="675" y="619.74" as="targetPoint"/>
                    </mxGeometry>
                </mxCell>
                <mxCell id="131" value="durata" style="edgeLabel;html=1;align=center;verticalAlign=middle;resizable=0;points=[];" vertex="1" connectable="0" parent="130">
                    <mxGeometry x="0.4791" y="1" relative="1" as="geometry">
                        <mxPoint x="-25" y="-16" as="offset"/>
                    </mxGeometry>
                </mxCell>
                <mxCell id="132" value="" style="edgeStyle=none;shape=connector;rounded=1;fillStyle=auto;html=1;labelBackgroundColor=default;strokeColor=default;strokeWidth=1;fontFamily=Helvetica;fontSize=11;fontColor=default;endArrow=none;endFill=0;startSize=6;endSize=6;fillColor=#000000;exitX=1;exitY=0.5;exitDx=0;exitDy=0;entryX=0;entryY=0.5;entryDx=0;entryDy=0;" edge="1" parent="1" source="134" target="135">
                    <mxGeometry relative="1" as="geometry"/>
                </mxCell>
                <mxCell id="133" value="(0, N)" style="edgeLabel;html=1;align=center;verticalAlign=middle;resizable=0;points=[];fontSize=11;fontFamily=Helvetica;fontColor=default;" vertex="1" connectable="0" parent="132">
                    <mxGeometry x="0.4262" y="1" relative="1" as="geometry">
                        <mxPoint x="-4" y="-9" as="offset"/>
                    </mxGeometry>
                </mxCell>
                <mxCell id="137" style="edgeStyle=none;html=1;exitX=0.5;exitY=1;exitDx=0;exitDy=0;entryX=1;entryY=0.25;entryDx=0;entryDy=0;endArrow=none;endFill=0;" edge="1" parent="1" source="134" target="111">
                    <mxGeometry relative="1" as="geometry">
                        <Array as="points">
                            <mxPoint x="860" y="650"/>
                        </Array>
                    </mxGeometry>
                </mxCell>
                <mxCell id="138" value="(1, 1)" style="edgeLabel;html=1;align=center;verticalAlign=middle;resizable=0;points=[];" vertex="1" connectable="0" parent="137">
                    <mxGeometry x="0.5702" y="-3" relative="1" as="geometry">
                        <mxPoint x="3" y="-7" as="offset"/>
                    </mxGeometry>
                </mxCell>
                <mxCell id="134" value="appartiene" style="rhombus;whiteSpace=wrap;html=1;" vertex="1" parent="1">
                    <mxGeometry x="820" y="579.74" width="80" height="40" as="geometry"/>
                </mxCell>
                <mxCell id="135" value="CATEGORIA" style="rounded=0;whiteSpace=wrap;html=1;" vertex="1" parent="1">
                    <mxGeometry x="960" y="579.5" width="80" height="40" as="geometry"/>
                </mxCell>
                <mxCell id="139" value="" style="endArrow=oval;html=1;fillStyle=auto;strokeWidth=1;startSize=6;endSize=6;fillColor=#000000;startArrow=none;startFill=0;endFill=1;" edge="1" parent="1" source="135">
                    <mxGeometry width="50" height="50" relative="1" as="geometry">
                        <mxPoint x="712.5" y="579.24" as="sourcePoint"/>
                        <mxPoint x="995" y="559.5" as="targetPoint"/>
                    </mxGeometry>
                </mxCell>
                <mxCell id="140" value="nome" style="edgeLabel;html=1;align=center;verticalAlign=middle;resizable=0;points=[];" vertex="1" connectable="0" parent="139">
                    <mxGeometry x="0.4791" y="1" relative="1" as="geometry">
                        <mxPoint x="1" y="-25" as="offset"/>
                    </mxGeometry>
                </mxCell>
                <mxCell id="141" value="" style="edgeStyle=none;shape=connector;rounded=1;fillStyle=auto;html=1;labelBackgroundColor=default;strokeColor=default;strokeWidth=1;fontFamily=Helvetica;fontSize=11;fontColor=default;endArrow=none;endFill=0;startSize=6;endSize=6;fillColor=#000000;exitX=1;exitY=0.5;exitDx=0;exitDy=0;entryX=0;entryY=0.5;entryDx=0;entryDy=0;" edge="1" parent="1" source="145" target="146">
                    <mxGeometry relative="1" as="geometry"/>
                </mxCell>
                <mxCell id="142" value="(0, N)" style="edgeLabel;html=1;align=center;verticalAlign=middle;resizable=0;points=[];fontSize=11;fontFamily=Helvetica;fontColor=default;" vertex="1" connectable="0" parent="141">
                    <mxGeometry x="0.4262" y="1" relative="1" as="geometry">
                        <mxPoint x="-3" y="-9" as="offset"/>
                    </mxGeometry>
                </mxCell>
                <mxCell id="143" style="edgeStyle=none;html=1;exitX=0.5;exitY=0;exitDx=0;exitDy=0;entryX=1;entryY=0.75;entryDx=0;entryDy=0;endArrow=none;endFill=0;" edge="1" parent="1" source="145" target="111">
                    <mxGeometry relative="1" as="geometry">
                        <mxPoint x="380" y="809.74" as="targetPoint"/>
                        <Array as="points">
                            <mxPoint x="920" y="670"/>
                        </Array>
                    </mxGeometry>
                </mxCell>
                <mxCell id="144" value="(0, N)" style="edgeLabel;html=1;align=center;verticalAlign=middle;resizable=0;points=[];" vertex="1" connectable="0" parent="143">
                    <mxGeometry x="0.5702" y="-3" relative="1" as="geometry">
                        <mxPoint x="71" y="13" as="offset"/>
                    </mxGeometry>
                </mxCell>
                <mxCell id="145" value="associato" style="rhombus;whiteSpace=wrap;html=1;" vertex="1" parent="1">
                    <mxGeometry x="880" y="690" width="80" height="40" as="geometry"/>
                </mxCell>
                <mxCell id="146" value="HASHTAG" style="rounded=0;whiteSpace=wrap;html=1;" vertex="1" parent="1">
                    <mxGeometry x="1020" y="690" width="80" height="40" as="geometry"/>
                </mxCell>
                <mxCell id="147" value="" style="endArrow=oval;html=1;fillStyle=auto;strokeWidth=1;startSize=6;endSize=6;fillColor=#000000;startArrow=none;startFill=0;endFill=1;" edge="1" parent="1" source="146">
                    <mxGeometry width="50" height="50" relative="1" as="geometry">
                        <mxPoint x="807.5" y="919.88" as="sourcePoint"/>
                        <mxPoint x="1120" y="710" as="targetPoint"/>
                    </mxGeometry>
                </mxCell>
                <mxCell id="148" value="nome" style="edgeLabel;html=1;align=center;verticalAlign=middle;resizable=0;points=[];" vertex="1" connectable="0" parent="147">
                    <mxGeometry x="0.4791" y="1" relative="1" as="geometry">
                        <mxPoint x="29" y="6" as="offset"/>
                    </mxGeometry>
                </mxCell>
                <mxCell id="152" value="" style="endArrow=oval;html=1;fillStyle=auto;strokeWidth=1;startSize=6;endSize=6;fillColor=#000000;startArrow=none;startFill=0;endFill=0;" edge="1" parent="1" source="111">
                    <mxGeometry width="50" height="50" relative="1" as="geometry">
                        <mxPoint x="707.5" y="649.7399999999998" as="sourcePoint"/>
                        <mxPoint x="760" y="620" as="targetPoint"/>
                    </mxGeometry>
                </mxCell>
                <mxCell id="153" value="numero medio &lt;br&gt;di spettatori" style="edgeLabel;html=1;align=center;verticalAlign=middle;resizable=0;points=[];" vertex="1" connectable="0" parent="152">
                    <mxGeometry x="0.4791" y="1" relative="1" as="geometry">
                        <mxPoint x="-4" y="-24" as="offset"/>
                    </mxGeometry>
                </mxCell>
                <mxCell id="157" style="edgeStyle=none;html=1;exitX=1;exitY=0.25;exitDx=0;exitDy=0;entryX=0;entryY=0.5;entryDx=0;entryDy=0;endArrow=none;endFill=0;" edge="1" parent="1" source="155" target="156">
                    <mxGeometry relative="1" as="geometry"/>
                </mxCell>
                <mxCell id="159" value="(0, N)" style="edgeLabel;html=1;align=center;verticalAlign=middle;resizable=0;points=[];" vertex="1" connectable="0" parent="157">
                    <mxGeometry x="-0.5424" relative="1" as="geometry">
                        <mxPoint x="-13" y="-15" as="offset"/>
                    </mxGeometry>
                </mxCell>
                <mxCell id="155" value="SPETTATORI" style="rounded=0;whiteSpace=wrap;html=1;" vertex="1" parent="1">
                    <mxGeometry x="200" y="639.74" width="80" height="40" as="geometry"/>
                </mxCell>
                <mxCell id="158" style="edgeStyle=none;html=1;exitX=1;exitY=0.5;exitDx=0;exitDy=0;entryX=0;entryY=0.5;entryDx=0;entryDy=0;endArrow=none;endFill=0;" edge="1" parent="1" source="156" target="111">
                    <mxGeometry relative="1" as="geometry"/>
                </mxCell>
                <mxCell id="160" value="(0, N)" style="edgeLabel;html=1;align=center;verticalAlign=middle;resizable=0;points=[];" vertex="1" connectable="0" parent="158">
                    <mxGeometry x="0.3067" y="-3" relative="1" as="geometry">
                        <mxPoint x="-87" y="-33" as="offset"/>
                    </mxGeometry>
                </mxCell>
                <mxCell id="156" value="commenti" style="rhombus;whiteSpace=wrap;html=1;" vertex="1" parent="1">
                    <mxGeometry x="420" y="610" width="80" height="40" as="geometry"/>
                </mxCell>
                <mxCell id="161" value="" style="endArrow=oval;html=1;fillStyle=auto;strokeWidth=1;startSize=6;endSize=6;fillColor=#000000;startArrow=none;startFill=0;endFill=0;" edge="1" parent="1" source="156">
                    <mxGeometry width="50" height="50" relative="1" as="geometry">
                        <mxPoint x="690" y="657.4323076923074" as="sourcePoint"/>
                        <mxPoint x="460" y="680" as="targetPoint"/>
                    </mxGeometry>
                </mxCell>
                <mxCell id="162" value="commento" style="edgeLabel;html=1;align=center;verticalAlign=middle;resizable=0;points=[];" vertex="1" connectable="0" parent="161">
                    <mxGeometry x="0.4791" y="1" relative="1" as="geometry">
                        <mxPoint x="-33" y="-3" as="offset"/>
                    </mxGeometry>
                </mxCell>
                <mxCell id="163" value="" style="endArrow=oval;html=1;fillStyle=auto;strokeWidth=1;startSize=6;endSize=6;fillColor=#000000;startArrow=none;startFill=0;endFill=0;" edge="1" parent="1" source="156">
                    <mxGeometry width="50" height="50" relative="1" as="geometry">
                        <mxPoint x="470" y="660" as="sourcePoint"/>
                        <mxPoint x="460" y="590" as="targetPoint"/>
                    </mxGeometry>
                </mxCell>
                <mxCell id="164" value="timestamp" style="edgeLabel;html=1;align=center;verticalAlign=middle;resizable=0;points=[];" vertex="1" connectable="0" parent="163">
                    <mxGeometry x="0.4791" y="1" relative="1" as="geometry">
                        <mxPoint x="-29" y="-15" as="offset"/>
                    </mxGeometry>
                </mxCell>
                <mxCell id="165" value="" style="endArrow=oval;html=1;fillStyle=auto;strokeWidth=1;startSize=6;endSize=6;fillColor=#000000;startArrow=none;startFill=0;endFill=1;" edge="1" parent="1">
                    <mxGeometry width="50" height="50" relative="1" as="geometry">
                        <mxPoint x="510" y="650" as="sourcePoint"/>
                        <mxPoint x="410" y="650" as="targetPoint"/>
                        <Array as="points">
                            <mxPoint x="510" y="600"/>
                            <mxPoint x="410" y="600"/>
                        </Array>
                    </mxGeometry>
                </mxCell>
            </root>
        </mxGraphModel>
    </diagram>
</mxfile>
